<svg xmlns="http://www.w3.org/2000/svg" xmlns:xlink="http://www.w3.org/1999/xlink" width="339" height="148" viewBox="0 0 339 148"><defs><clipPath id="a"><circle cx="32" cy="32" r="32" transform="translate(15 479)" fill="#fff" opacity="0.19"/></clipPath></defs><g transform="translate(-15 -507)"><rect width="332" height="114" rx="9" transform="translate(22 507)" fill="#91d800"/><path d="M3618.826,246l-53.867,54.134L3624.53,360h-40.856L3524.1,300.134l55.157-54.119Z" transform="translate(-3378 261)" fill="#fff" opacity="0.19"/><path d="M3618.826,246l-53.867,54.134L3624.53,360h-40.856L3524.1,300.134l55.157-54.119Z" transform="translate(-3312 261)" fill="#fff" opacity="0.19"/><g transform="translate(0 112)" opacity="0.19" clip-path="url(#a)"><path d="M9,0H323a9,9,0,0,1,9,9v96a9,9,0,0,1-9,9H9a9,9,0,0,1-9-9V9A9,9,0,0,1,9,0Z" transform="translate(22 395)" fill="#fff"/></g></g></svg>